<svg height="512pt" viewBox="-4 0 512 512.20477" width="512pt" xmlns="http://www.w3.org/2000/svg"><path d="m286.503906 60.804688c-4.800781 0-8.703125-3.898438-8.703125-8.699219s3.902344-8.699219 8.703125-8.699219c12.5 1.097656 24.699219-3.800781 33.097656-13 1.800782-1.902344 2.101563-4.800781.902344-7.101562-2.101562-3.898438-6.300781-6.199219-10.703125-5.898438h-23.296875c-4.800781 0-8.703125-3.902344-8.703125-8.703125 0-4.796875 3.902344-8.69921875 8.703125-8.69921875h23.296875c11.101563-.19921825 21.300781 5.90234375 26.402344 15.69921875 4.097656 8.402344 2.898437 18.300781-3.101563 25.5-11.597656 13.601563-28.800781 20.800781-46.597656 19.601563zm0 0" fill="#d25627"/><path d="m217.101562 60.804688c-17.699218 1.199218-35-6-46.597656-19.5-6-7.101563-7.203125-17.101563-3.101562-25.5 5.101562-9.898438 15.300781-16 26.398437-15.699219h23.300781c4.800782 0 8.699219 3.898437 8.699219 8.699219 0 4.800781-3.898437 8.699218-8.699219 8.699218h-23.300781c-4.398437-.199218-8.597656 2-10.699219 5.902344-1.199218 2.296875-.800781 5.199219.902344 7.097656 8.398438 9.300782 20.597656 14.101563 33.097656 13.101563 4.800782 0 8.699219 3.898437 8.699219 8.699219 0 4.800781-3.898437 8.5-8.699219 8.5zm0 0" fill="#d25627"/><path d="m286.503906.105469h-69.402344c-4.800781 0-8.699218 3.898437-8.699218 8.699219v34.699218c0 19 12.300781 35.800782 30.398437 41.5 8.5 2.5 17.5 2.5 26 0 18.101563-5.699218 30.402344-22.5 30.402344-41.5v-34.699218c0-4.800782-3.902344-8.699219-8.699219-8.699219zm-8.703125 43.398437c0 14.402344-11.699219 26-26 26-14.398437 0-26-11.699218-26-26v-26h52zm0 0" fill="#e57e25"/><path d="m277.800781 17.503906v26c0 14.402344-11.699219 26-26 26-14.398437 0-26-11.699218-26-26v-26zm0 0" fill="#f0c419"/><path d="m285.601562 126.40625-20.800781-41.402344-5.296875-10.699218c-1.601562-2.699219-4.601562-4.398438-7.703125-4.398438-3.199219 0-6.097656 1.699219-7.699219 4.398438l-5.300781 10.699218-20.699219 41.402344c-1.398437 2.699219-1.199218 5.898438.402344 8.398438 1.597656 2.5 4.398438 4.101562 7.398438 4.101562h51.898437c3 0 5.800781-1.601562 7.402344-4.101562 1.597656-2.5 1.699219-5.699219.398437-8.398438zm-45.800781-4.800781 12-24 12 24zm0 0" fill="#e57e25"/><path d="m263.800781 121.605469h-24l12-24zm0 0" fill="#f0c419"/><path d="m208.402344 130.304688h86.800781c9.597656 0 17.398437 7.800781 17.398437 17.398437v329.800781h-121.5v-329.898437c0-9.601563 7.699219-17.300781 17.300782-17.300781zm0 0" fill="#894b9d"/><path d="m312.503906 147.605469v329.800781h-60.703125v-347.101562h43.402344c9.597656 0 17.300781 7.800781 17.300781 17.300781zm0 0" fill="#955ba5"/><g fill="#fff"><path d="m251.800781 240.40625c-12.898437 0-23.398437-10.5-23.398437-23.402344 0-3.300781 2.699218-6 6-6 3.300781 0 6 2.699219 6 6 0 6.199219 5 11.300782 11.300781 11.402344 6.199219-.300781 11.199219-5.300781 11.5-11.402344-.101563-4.597656-5.402344-7.597656-14-11.898437-9.199219-4.601563-20.699219-10.300781-20.699219-22.699219 0-.101562 0-.101562 0-.203125.398438-12.597656 10.597656-22.699219 23.199219-23.199219h.199219c12.898437 0 23.398437 10.5 23.398437 23.402344 0 3.296875-2.699219 6-6 6-3.296875 0-6-2.703125-6-6 0-6.203125-5-11.300781-11.296875-11.402344-6.203125.300782-11.203125 5.300782-11.5 11.402344.097656 4.597656 5.398438 7.597656 14 11.898438 9.199219 4.601562 20.699219 10.300781 20.699219 22.699218v.199219c-.402344 12.601563-10.601563 22.703125-23.199219 23.203125-.101562 0-.101562 0-.203125 0zm0 0"/><path d="m269.203125 344.503906h-26c-8.101563 0-14.699219-6.597656-14.699219-14.699218v-52.101563c0-8.097656 6.597656-14.699219 14.699219-14.699219h26c3.300781 0 6 2.699219 6 6 0 3.300782-2.699219 6-6 6h-26c-1.5 0-2.699219 1.199219-2.699219 2.699219v52.101563c0 1.5 1.199219 2.699218 2.699219 2.699218h26c3.300781 0 6 2.699219 6 6 0 3.300782-2.699219 6-6 6zm0 0"/><path d="m269.203125 309.804688h-34.699219c-3.300781 0-6-2.699219-6-6 0-3.300782 2.699219-6 6-6h34.699219c3.300781 0 6 2.699218 6 6 0 3.300781-2.699219 6-6 6zm0 0"/><path d="m251.800781 448.703125c-12.898437 0-23.398437-10.5-23.398437-23.398437v-34.699219c0-12.902344 10.5-23.402344 23.398437-23.402344 12.902344 0 23.402344 10.5 23.402344 23.402344v34.699219c0 12.898437-10.5 23.398437-23.402344 23.398437zm0-69.398437c-6.296875 0-11.398437 5.101562-11.398437 11.398437v34.703125c0 6.296875 5.101562 11.398438 11.398437 11.398438 6.300781 0 11.402344-5.101563 11.402344-11.398438v-34.703125c0-6.398437-5.101563-11.398437-11.402344-11.398437zm0 0"/></g><path d="m17.503906 477.40625h468.597656c9.601563 0 17.402344 7.796875 17.402344 17.398438 0 9.601562-7.800781 17.398437-17.402344 17.398437h-468.597656c-9.601562 0-17.402344-7.796875-17.402344-17.398437 0-9.601563 7.800782-17.398438 17.402344-17.398438zm0 0" fill="#3d324c"/><path d="m364.601562 217.003906h86.800782c9.601562 0 17.398437 7.800782 17.398437 17.402344v243h-121.5v-243c0-9.601562 7.703125-17.402344 17.300781-17.402344zm0 0" fill="#46b29d"/><path d="m468.703125 234.40625v243h-60.699219v-260.402344h43.398438c9.601562.101563 17.300781 7.800782 17.300781 17.402344zm0 0" fill="#65ddb9"/><path d="m52.203125 303.804688h86.800781c9.597656 0 17.398438 7.800781 17.398438 17.398437v156.203125h-121.5v-156.203125c0-9.597656 7.699218-17.398437 17.300781-17.398437zm0 0" fill="#ff5364"/><path d="m156.300781 321.203125v156.203125h-60.699219v-173.601562h43.402344c9.597656.101562 17.296875 7.800781 17.296875 17.398437zm0 0" fill="#df4d60"/><path d="m408.003906 78.203125c-4.800781 0-8.703125-3.898437-8.703125-8.699219v-60.699218c0-4.800782 3.902344-8.699219 8.703125-8.699219 4.796875 0 8.699219 3.898437 8.699219 8.699219v60.699218c0 4.800782-3.902344 8.699219-8.699219 8.699219zm0 0" fill="#46b29d"/><path d="m425.402344 34.804688c-2.300782 0-4.5-.898438-6.101563-2.5l-11.199219-11.199219-11.300781 11.199219c-3.398437 3.300781-8.796875 3.199218-12.199219-.101563-3.300781-3.296875-3.398437-8.796875-.097656-12.199219l17.398438-17.398437c3.398437-3.402344 8.898437-3.402344 12.300781 0l17.398437 17.398437c2.5 2.5 3.199219 6.199219 1.902344 9.5-1.5 3.199219-4.601562 5.300782-8.101562 5.300782zm0 0" fill="#46b29d"/><path d="m408.003906 130.304688c-4.800781 0-8.703125-3.898438-8.703125-8.699219v-17.402344c0-4.796875 3.902344-8.699219 8.703125-8.699219 4.796875 0 8.699219 3.902344 8.699219 8.699219v17.402344c0 4.800781-3.902344 8.699219-8.699219 8.699219zm0 0" fill="#46b29d"/><path d="m95.601562 199.703125c-4.800781 0-8.699218-3.898437-8.699218-8.699219v-34.699218c0-4.800782 3.898437-8.699219 8.699218-8.699219 4.800782 0 8.699219 3.898437 8.699219 8.699219v34.699218c0 4.800782-3.898437 8.699219-8.699219 8.699219zm0 0" fill="#df4d60"/><path d="m113.003906 182.304688c-2.300781 0-4.5-.898438-6.101562-2.5l-11.199219-11.199219-11.199219 11.199219c-3.402344 3.300781-8.800781 3.199218-12.203125-.101563-3.296875-3.296875-3.398437-8.796875-.097656-12.199219l17.398437-17.398437c3.402344-3.402344 8.902344-3.402344 12.300782 0l17.398437 17.398437c2.5 2.5 3.203125 6.199219 1.902344 9.5-1.601563 3.199219-4.699219 5.300782-8.199219 5.300782zm0 0" fill="#df4d60"/><path d="m95.601562 277.804688c-4.800781 0-8.699218-3.898438-8.699218-8.699219v-43.402344c0-4.796875 3.898437-8.699219 8.699218-8.699219 4.800782 0 8.699219 3.902344 8.699219 8.699219v43.402344c0 4.800781-3.898437 8.699219-8.699219 8.699219zm0 0" fill="#df4d60"/></svg>