<?xml version="1.0" standalone="no"?>
<svg xmlns:xlink="http://www.w3.org/1999/xlink" id="wave" style="transform:rotate(0deg); transition: 0.3s" viewBox="0 0 1440 490" version="1.1" xmlns="http://www.w3.org/2000/svg"><defs><linearGradient id="sw-gradient-0" x1="0" x2="0" y1="1" y2="0"><stop stop-color="rgba(255, 255, 255, 1)" offset="0%"/><stop stop-color="rgba(255, 255, 255, 1)" offset="100%"/></linearGradient></defs><path style="transform:translate(0, 0px); opacity:1" fill="url(#sw-gradient-0)" d="M0,294L20,318.5C40,343,80,392,120,359.3C160,327,200,212,240,138.8C280,65,320,33,360,24.5C400,16,440,33,480,106.2C520,180,560,310,600,310.3C640,310,680,180,720,122.5C760,65,800,82,840,138.8C880,196,920,294,960,351.2C1000,408,1040,425,1080,416.5C1120,408,1160,376,1200,302.2C1240,229,1280,114,1320,114.3C1360,114,1400,229,1440,236.8C1480,245,1520,147,1560,106.2C1600,65,1640,82,1680,98C1720,114,1760,131,1800,147C1840,163,1880,180,1920,228.7C1960,278,2000,359,2040,343C2080,327,2120,212,2160,155.2C2200,98,2240,98,2280,130.7C2320,163,2360,229,2400,277.7C2440,327,2480,359,2520,318.5C2560,278,2600,163,2640,122.5C2680,82,2720,114,2760,171.5C2800,229,2840,310,2860,351.2L2880,392L2880,490L2860,490C2840,490,2800,490,2760,490C2720,490,2680,490,2640,490C2600,490,2560,490,2520,490C2480,490,2440,490,2400,490C2360,490,2320,490,2280,490C2240,490,2200,490,2160,490C2120,490,2080,490,2040,490C2000,490,1960,490,1920,490C1880,490,1840,490,1800,490C1760,490,1720,490,1680,490C1640,490,1600,490,1560,490C1520,490,1480,490,1440,490C1400,490,1360,490,1320,490C1280,490,1240,490,1200,490C1160,490,1120,490,1080,490C1040,490,1000,490,960,490C920,490,880,490,840,490C800,490,760,490,720,490C680,490,640,490,600,490C560,490,520,490,480,490C440,490,400,490,360,490C320,490,280,490,240,490C200,490,160,490,120,490C80,490,40,490,20,490L0,490Z"/></svg>