<?xml version="1.0" standalone="no"?><svg xmlns="http://www.w3.org/2000/svg" viewBox="0 0 1440 320"><path fill="#f3f4f5" fill-opacity="1" d="M0,192L30,208C60,224,120,256,180,256C240,256,300,224,360,197.3C420,171,480,149,540,133.3C600,117,660,107,720,128C780,149,840,203,900,186.7C960,171,1020,85,1080,90.7C1140,96,1200,192,1260,208C1320,224,1380,160,1410,128L1440,96L1440,320L1410,320C1380,320,1320,320,1260,320C1200,320,1140,320,1080,320C1020,320,960,320,900,320C840,320,780,320,720,320C660,320,600,320,540,320C480,320,420,320,360,320C300,320,240,320,180,320C120,320,60,320,30,320L0,320Z"></path></svg>