<?xml version="1.0" standalone="no"?>
<svg xmlns:xlink="http://www.w3.org/1999/xlink" id="wave" style="transform:rotate(180deg); transition: 0.3s" viewBox="0 0 1440 160" version="1.1" xmlns="http://www.w3.org/2000/svg"><defs><linearGradient id="sw-gradient-0" x1="0" x2="0" y1="1" y2="0"><stop stop-color="rgba(255, 255, 255, 1)" offset="0%"/><stop stop-color="rgba(255, 255, 255, 1)" offset="100%"/></linearGradient></defs><path style="transform:translate(0, 0px); opacity:1" fill="url(#sw-gradient-0)" d="M0,0L34.3,8C68.6,16,137,32,206,40C274.3,48,343,48,411,58.7C480,69,549,91,617,82.7C685.7,75,754,37,823,18.7C891.4,0,960,0,1029,21.3C1097.1,43,1166,85,1234,98.7C1302.9,112,1371,96,1440,82.7C1508.6,69,1577,59,1646,66.7C1714.3,75,1783,101,1851,114.7C1920,128,1989,128,2057,109.3C2125.7,91,2194,53,2263,48C2331.4,43,2400,69,2469,74.7C2537.1,80,2606,64,2674,53.3C2742.9,43,2811,37,2880,50.7C2948.6,64,3017,96,3086,112C3154.3,128,3223,128,3291,112C3360,96,3429,64,3497,61.3C3565.7,59,3634,85,3703,98.7C3771.4,112,3840,112,3909,114.7C3977.1,117,4046,123,4114,109.3C4182.9,96,4251,64,4320,53.3C4388.6,43,4457,53,4526,61.3C4594.3,69,4663,75,4731,66.7C4800,59,4869,37,4903,26.7L4937.1,16L4937.1,160L4902.9,160C4868.6,160,4800,160,4731,160C4662.9,160,4594,160,4526,160C4457.1,160,4389,160,4320,160C4251.4,160,4183,160,4114,160C4045.7,160,3977,160,3909,160C3840,160,3771,160,3703,160C3634.3,160,3566,160,3497,160C3428.6,160,3360,160,3291,160C3222.9,160,3154,160,3086,160C3017.1,160,2949,160,2880,160C2811.4,160,2743,160,2674,160C2605.7,160,2537,160,2469,160C2400,160,2331,160,2263,160C2194.3,160,2126,160,2057,160C1988.6,160,1920,160,1851,160C1782.9,160,1714,160,1646,160C1577.1,160,1509,160,1440,160C1371.4,160,1303,160,1234,160C1165.7,160,1097,160,1029,160C960,160,891,160,823,160C754.3,160,686,160,617,160C548.6,160,480,160,411,160C342.9,160,274,160,206,160C137.1,160,69,160,34,160L0,160Z"/></svg>